<?xml version="1.0" encoding="UTF-8"?>
<svg width="123px" height="40px" viewBox="0 0 123 40" version="1.1" xmlns="http://www.w3.org/2000/svg" xmlns:xlink="http://www.w3.org/1999/xlink" xmlns:sketch="http://www.bohemiancoding.com/sketch/ns">
    <title>QKUNST_LOGO_COLLECTIEBEHEER</title>
    <description>Created with Sketch (http://www.bohemiancoding.com/sketch)</description>
    <defs></defs>
    <g id="Page-1" stroke="none" stroke-width="1" fill="none" fill-rule="evenodd" sketch:type="MSPage">
        <g id="QKUNST_LOGO_TEXT-01" sketch:type="MSLayerGroup" transform="translate(1.000000, 1.000000)" fill="#A18372">
            <path d="M14.1025,12.1436 C14.6535,11.3776 14.9395,10.3966 14.9395,9.4886 C14.9395,6.7846 12.6915,4.3436 9.8685,4.3436 C7.0665,4.3436 4.7485,6.6156 4.7485,9.1046 C4.7485,12.2156 7.0665,14.4896 9.8685,14.4896 C10.3455,14.4896 10.8255,14.4166 11.3025,14.2486 L8.4085,11.3776 L12.8335,10.8286 L14.1025,12.1436 Z M16.2325,19.5616 L14.7965,17.8626 C13.4085,18.7006 11.7815,19.0346 9.8435,19.0346 C4.0535,19.0346 -0.1345,14.9196 -0.1345,9.0806 C-0.1345,3.6256 4.6525,-0.2034 9.8435,-0.2034 C15.4665,-0.2034 19.8205,3.6026 19.8205,9.4636 C19.8205,11.8566 19.0065,13.9396 17.5005,15.8036 L20.5375,18.8916 L16.2325,19.5616 Z" id="Fill-1" sketch:type="MSShapeGroup"></path>
            <path d="M35.9893,0.396 L41.8033,0.396 L34.6273,8.939 L42.4513,18.437 L36.3723,18.437 L30.3183,10.613 L30.2713,10.613 L30.2713,18.437 L25.5823,18.437 L25.5823,0.396 L30.2713,0.396 L30.2713,7.839 L30.3183,7.839 L35.9893,0.396 Z" id="Fill-3" sketch:type="MSShapeGroup"></path>
            <path d="M62.3535,0.396 L62.3535,10.541 C62.3535,12.861 62.2585,15.159 60.4625,16.905 C58.9545,18.389 56.5845,18.916 54.4795,18.916 C52.3745,18.916 50.0055,18.389 48.4995,16.905 C46.7035,15.159 46.6075,12.861 46.6075,10.541 L46.6075,0.396 L51.2975,0.396 L51.2975,9.896 C51.2975,12.24 51.4665,14.799 54.4795,14.799 C57.4965,14.799 57.6635,12.24 57.6635,9.896 L57.6635,0.396 L62.3535,0.396 Z" id="Fill-5" sketch:type="MSShapeGroup"></path>
            <path d="M68.3057,0.396 L72.9957,0.396 L81.5847,11.427 L81.6327,11.427 L81.6327,0.396 L86.3207,0.396 L86.3207,18.437 L81.6327,18.437 L73.0427,7.382 L72.9957,7.382 L72.9957,18.437 L68.3057,18.437 L68.3057,0.396 Z" id="Fill-7" sketch:type="MSShapeGroup"></path>
            <path d="M102.2773,5.0381 C101.4153,4.3201 100.3143,3.8411 99.1663,3.8411 C98.3043,3.8411 97.1563,4.3441 97.1563,5.3491 C97.1563,6.4011 98.4253,6.8071 99.2383,7.0711 L100.4333,7.4311 C102.9473,8.1721 104.8843,9.4401 104.8843,12.3601 C104.8843,14.1551 104.4543,15.9961 103.0183,17.2171 C101.6053,18.4131 99.7163,18.9151 97.8983,18.9151 C95.6263,18.9151 93.4003,18.1491 91.5563,16.8581 L93.5663,13.0771 C94.7383,14.1061 96.1273,14.9451 97.7313,14.9451 C98.8313,14.9451 100.0043,14.3921 100.0043,13.1241 C100.0043,11.8091 98.1613,11.3521 97.1563,11.0681 C94.2133,10.2301 92.2743,9.4641 92.2743,5.9721 C92.2743,2.3111 94.8823,-0.0829 98.4973,-0.0829 C100.3143,-0.0829 102.5383,0.4911 104.1423,1.4011 L102.2773,5.0381 Z" id="Fill-9" sketch:type="MSShapeGroup"></path>
            <path d="M117.2744,18.437 L112.5844,18.437 L112.5844,4.368 L108.7094,4.368 L108.7094,0.396 L121.1494,0.396 L121.1494,4.368 L117.2744,4.368 L117.2744,18.437 Z" id="Fill-11" sketch:type="MSShapeGroup"></path>
        </g>
        <text id="Collectiebeheer" sketch:type="MSTextLayer" font-family="Futura" font-size="17" font-weight="420" fill="#8F705F">
            <tspan x="1" y="39">Collectiebeheer</tspan>
        </text>
    </g>
</svg>