<?xml version="1.0" encoding="UTF-8"?>
<svg width="123px" height="39px" viewBox="0 0 123 39" version="1.1" xmlns="http://www.w3.org/2000/svg" xmlns:xlink="http://www.w3.org/1999/xlink">
    <title>collectiemanagementlogo</title>
    <g id="Page-1" stroke="none" stroke-width="1" fill="none" fill-rule="evenodd">
        <g id="logo2">
            <g id="QKUNST_LOGO_TEXT-01" fill="#A18372" fill-rule="nonzero">
                <path d="M15.1025,13.1436 C15.6535,12.3776 15.9395,11.3966 15.9395,10.4886 C15.9395,7.7846 13.6915,5.3436 10.8685,5.3436 C8.0665,5.3436 5.7485,7.6156 5.7485,10.1046 C5.7485,13.2156 8.0665,15.4896 10.8685,15.4896 C11.3455,15.4896 11.8255,15.4166 12.3025,15.2486 L9.4085,12.3776 L13.8335,11.8286 L15.1025,13.1436 Z M17.2325,20.5616 L15.7965,18.8626 C14.4085,19.7006 12.7815,20.0346 10.8435,20.0346 C5.0535,20.0346 0.8655,15.9196 0.8655,10.0806 C0.8655,4.6256 5.6525,0.7966 10.8435,0.7966 C16.4665,0.7966 20.8205,4.6026 20.8205,10.4636 C20.8205,12.8566 20.0065,14.9396 18.5005,16.8036 L21.5375,19.8916 L17.2325,20.5616 Z" id="Fill-1"></path>
                <polygon id="Fill-3" points="36.9893 1.396 42.8033 1.396 35.6273 9.939 43.4513 19.437 37.3723 19.437 31.3183 11.613 31.2713 11.613 31.2713 19.437 26.5823 19.437 26.5823 1.396 31.2713 1.396 31.2713 8.839 31.3183 8.839"></polygon>
                <path d="M63.3535,1.396 L63.3535,11.541 C63.3535,13.861 63.2585,16.159 61.4625,17.905 C59.9545,19.389 57.5845,19.916 55.4795,19.916 C53.3745,19.916 51.0055,19.389 49.4995,17.905 C47.7035,16.159 47.6075,13.861 47.6075,11.541 L47.6075,1.396 L52.2975,1.396 L52.2975,10.896 C52.2975,13.24 52.4665,15.799 55.4795,15.799 C58.4965,15.799 58.6635,13.24 58.6635,10.896 L58.6635,1.396 L63.3535,1.396 Z" id="Fill-5"></path>
                <polygon id="Fill-7" points="69.3057 1.396 73.9957 1.396 82.5847 12.427 82.6327 12.427 82.6327 1.396 87.3207 1.396 87.3207 19.437 82.6327 19.437 74.0427 8.382 73.9957 8.382 73.9957 19.437 69.3057 19.437"></polygon>
                <path d="M103.2773,6.0381 C102.4153,5.3201 101.3143,4.8411 100.1663,4.8411 C99.3043,4.8411 98.1563,5.3441 98.1563,6.3491 C98.1563,7.4011 99.4253,7.8071 100.2383,8.0711 L101.4333,8.4311 C103.9473,9.1721 105.8843,10.4401 105.8843,13.3601 C105.8843,15.1551 105.4543,16.9961 104.0183,18.2171 C102.6053,19.4131 100.7163,19.9151 98.8983,19.9151 C96.6263,19.9151 94.4003,19.1491 92.5563,17.8581 L94.5663,14.0771 C95.7383,15.1061 97.1273,15.9451 98.7313,15.9451 C99.8313,15.9451 101.0043,15.3921 101.0043,14.1241 C101.0043,12.8091 99.1613,12.3521 98.1563,12.0681 C95.2133,11.2301 93.2743,10.4641 93.2743,6.9721 C93.2743,3.3111 95.8823,0.9171 99.4973,0.9171 C101.3143,0.9171 103.5383,1.4911 105.1423,2.4011 L103.2773,6.0381 Z" id="Fill-9"></path>
                <polygon id="Fill-11" points="118.2744 19.437 113.5844 19.437 113.5844 5.368 109.7094 5.368 109.7094 1.396 122.1494 1.396 122.1494 5.368 118.2744 5.368"></polygon>
            </g>
            <text id="Collectiemanagement" fill="#8F705F" font-family="Futura-Medium, Futura" font-size="12.4" font-weight="400">
                <tspan x="1" y="35">Collectiemanagement</tspan>
            </text>
        </g>
    </g>
</svg>