<svg viewBox="0 0 144 48" version="1.1" xml:space="preserve" style="fill-rule:evenodd;clip-rule:evenodd;stroke-linecap:square;stroke-width:0" id="svg11"
  xmlns="http://www.w3.org/2000/svg"
  xmlns:svg="http://www.w3.org/2000/svg">
  <defs id="defs11" />
  <g id="heden-today" transform="translate(-8.627,-8.745)">
    <path d="m 20.146,35.545 v 7.5 h -3.41 v -7.77 c 0,-0.687 -0.117,-1.242 -0.351,-1.664 -0.305,-0.594 -0.883,-0.891 -1.735,-0.891 -0.883,0 -1.553,0.295 -2.01,0.885 -0.457,0.59 -0.685,1.432 -0.685,2.526 v 6.914 H 8.627 V 25.83 h 3.328 v 6.105 c 0.484,-0.742 1.045,-1.259 1.681,-1.552 0.637,-0.293 1.307,-0.44 2.01,-0.44 0.789,0 1.506,0.137 2.151,0.41 0.644,0.274 1.173,0.692 1.588,1.254 0.351,0.477 0.566,0.967 0.644,1.471 0.078,0.504 0.117,1.326 0.117,2.467 z" id="path1" />
    <path d="m 34.197,39.295 c -0.086,0.758 -0.48,1.527 -1.184,2.308 -1.093,1.242 -2.625,1.864 -4.593,1.864 -1.625,0 -3.059,-0.524 -4.301,-1.571 -1.242,-1.047 -1.863,-2.75 -1.863,-5.109 0,-2.211 0.56,-3.906 1.681,-5.086 1.121,-1.18 2.576,-1.77 4.366,-1.77 1.062,0 2.019,0.2 2.871,0.598 0.851,0.399 1.554,1.027 2.109,1.887 0.5,0.758 0.824,1.637 0.973,2.637 0.086,0.585 0.121,1.429 0.105,2.531 h -8.742 c 0.047,1.281 0.449,2.179 1.207,2.695 0.461,0.32 1.016,0.481 1.664,0.481 0.688,0 1.246,-0.196 1.676,-0.586 0.234,-0.211 0.441,-0.504 0.621,-0.879 z m -3.305,-3.914 c -0.054,-0.883 -0.322,-1.553 -0.802,-2.01 -0.481,-0.457 -1.077,-0.686 -1.787,-0.686 -0.774,0 -1.374,0.243 -1.799,0.727 -0.426,0.484 -0.694,1.141 -0.803,1.969 z" id="path2" />
    <path d="m 48.236,25.795 v 17.25 H 44.99 v -1.77 c -0.477,0.758 -1.02,1.309 -1.629,1.653 -0.609,0.343 -1.367,0.515 -2.273,0.515 -1.493,0 -2.748,-0.603 -3.768,-1.81 -1.019,-1.207 -1.529,-2.756 -1.529,-4.647 0,-2.18 0.502,-3.894 1.506,-5.144 1.004,-1.25 2.345,-1.875 4.025,-1.875 0.773,0 1.461,0.169 2.063,0.509 0.601,0.34 1.089,0.811 1.464,1.412 v -6.093 z m -9,10.945 c 0,1.18 0.234,2.121 0.703,2.824 0.461,0.711 1.164,1.067 2.11,1.067 0.945,0 1.664,-0.352 2.156,-1.055 0.492,-0.703 0.738,-1.613 0.738,-2.731 0,-1.562 -0.394,-2.679 -1.183,-3.351 -0.485,-0.406 -1.047,-0.609 -1.688,-0.609 -0.977,0 -1.693,0.369 -2.15,1.107 -0.457,0.738 -0.686,1.654 -0.686,2.748 z" id="path3" />
    <path d="m 62.205,39.295 c -0.086,0.758 -0.481,1.527 -1.184,2.308 -1.093,1.242 -2.625,1.864 -4.593,1.864 -1.625,0 -3.059,-0.524 -4.301,-1.571 -1.242,-1.047 -1.864,-2.75 -1.864,-5.109 0,-2.211 0.561,-3.906 1.682,-5.086 1.121,-1.18 2.576,-1.77 4.365,-1.77 1.063,0 2.02,0.2 2.871,0.598 0.852,0.399 1.555,1.027 2.11,1.887 0.5,0.758 0.824,1.637 0.972,2.637 0.086,0.585 0.122,1.429 0.106,2.531 h -8.742 c 0.047,1.281 0.449,2.179 1.207,2.695 0.461,0.32 1.015,0.481 1.664,0.481 0.687,0 1.246,-0.196 1.676,-0.586 0.234,-0.211 0.441,-0.504 0.621,-0.879 z M 58.9,35.381 c -0.055,-0.883 -0.322,-1.553 -0.803,-2.01 -0.48,-0.457 -1.076,-0.686 -1.787,-0.686 -0.773,0 -1.373,0.243 -1.799,0.727 -0.425,0.484 -0.693,1.141 -0.802,1.969 z" id="path4" />
    <path d="m 70.631,32.744 c -1.133,0 -1.911,0.48 -2.332,1.441 -0.219,0.508 -0.329,1.157 -0.329,1.946 v 6.914 h -3.328 v -12.75 h 3.223 v 1.863 c 0.43,-0.656 0.836,-1.129 1.219,-1.418 0.687,-0.516 1.558,-0.773 2.613,-0.773 1.32,0 2.4,0.345 3.24,1.037 0.84,0.691 1.26,1.838 1.26,3.439 v 8.602 h -3.422 v -7.77 c 0,-0.672 -0.09,-1.187 -0.269,-1.547 -0.328,-0.656 -0.953,-0.984 -1.875,-0.984 z" id="path5" />
    <path d="m 78.992,45.205 h -1.344 l 5.64,-19.896 h 1.344 z" id="path6" />
    <path d="m 90.488,43.093 c -0.176,0.032 -0.408,0.088 -0.696,0.168 -0.288,0.08 -0.608,0.12 -0.96,0.12 -0.72,0 -1.268,-0.18 -1.644,-0.54 -0.376,-0.36 -0.564,-1.004 -0.564,-1.932 v -9.096 h -1.752 v -1.2 h 1.752 v -3.456 h 1.44 v 3.456 h 2.328 v 1.2 h -2.328 v 8.52 c 0,0.304 0.008,0.568 0.024,0.792 0.016,0.224 0.064,0.408 0.144,0.552 0.08,0.144 0.204,0.248 0.372,0.312 0.168,0.064 0.404,0.096 0.708,0.096 0.192,0 0.388,-0.016 0.588,-0.048 0.2,-0.032 0.396,-0.072 0.588,-0.12 z" id="path7" />
    <path d="m 97.736,43.381 c -0.8,-0.016 -1.548,-0.16 -2.244,-0.432 -0.696,-0.272 -1.304,-0.68 -1.824,-1.224 -0.52,-0.544 -0.932,-1.224 -1.236,-2.04 -0.304,-0.816 -0.456,-1.768 -0.456,-2.856 0,-0.912 0.12,-1.764 0.36,-2.556 0.24,-0.792 0.6,-1.484 1.08,-2.076 0.48,-0.592 1.08,-1.06 1.8,-1.404 0.72,-0.344 1.56,-0.516 2.52,-0.516 0.976,0 1.824,0.172 2.544,0.516 0.72,0.344 1.32,0.808 1.8,1.392 0.48,0.584 0.836,1.276 1.068,2.076 0.232,0.8 0.348,1.656 0.348,2.568 0,0.992 -0.136,1.888 -0.408,2.688 -0.272,0.8 -0.66,1.488 -1.164,2.064 -0.504,0.576 -1.112,1.02 -1.824,1.332 -0.712,0.312 -1.5,0.468 -2.364,0.468 z m 4.224,-6.552 c 0,-0.736 -0.08,-1.424 -0.24,-2.064 -0.16,-0.64 -0.408,-1.196 -0.744,-1.668 -0.336,-0.472 -0.768,-0.844 -1.296,-1.116 -0.528,-0.272 -1.176,-0.408 -1.944,-0.408 -0.752,0 -1.396,0.148 -1.932,0.444 -0.536,0.296 -0.972,0.688 -1.308,1.176 -0.336,0.488 -0.584,1.048 -0.744,1.68 -0.16,0.632 -0.24,1.284 -0.24,1.956 0,0.768 0.092,1.476 0.276,2.124 0.184,0.648 0.452,1.204 0.804,1.668 0.352,0.464 0.792,0.824 1.32,1.08 0.528,0.256 1.136,0.384 1.824,0.384 0.752,0 1.396,-0.148 1.932,-0.444 0.536,-0.296 0.972,-0.692 1.308,-1.188 0.336,-0.496 0.584,-1.056 0.744,-1.68 0.16,-0.624 0.24,-1.272 0.24,-1.944 z" id="path8" />
    <path d="m 115.736,36.781 c 0,-0.704 -0.096,-1.372 -0.288,-2.004 -0.192,-0.632 -0.468,-1.184 -0.828,-1.656 -0.36,-0.472 -0.8,-0.848 -1.32,-1.128 -0.52,-0.28 -1.108,-0.42 -1.764,-0.42 -0.752,0 -1.4,0.148 -1.944,0.444 -0.544,0.296 -0.992,0.7 -1.344,1.212 -0.352,0.512 -0.608,1.108 -0.768,1.788 -0.16,0.68 -0.224,1.412 -0.192,2.196 0,0.784 0.108,1.476 0.324,2.076 0.216,0.6 0.516,1.108 0.9,1.524 0.384,0.416 0.832,0.732 1.344,0.948 0.512,0.216 1.072,0.324 1.68,0.324 0.672,0 1.272,-0.136 1.8,-0.408 0.528,-0.272 0.968,-0.644 1.32,-1.116 0.352,-0.472 0.62,-1.032 0.804,-1.68 0.184,-0.648 0.276,-1.348 0.276,-2.1 z m 0,-11.016 h 1.44 v 17.28 h -1.44 v -2.184 h -0.048 c -0.208,0.416 -0.476,0.78 -0.804,1.092 -0.328,0.312 -0.688,0.572 -1.08,0.78 -0.392,0.208 -0.796,0.368 -1.212,0.48 -0.416,0.112 -0.824,0.168 -1.224,0.168 -1.008,0 -1.864,-0.168 -2.568,-0.504 -0.704,-0.336 -1.284,-0.796 -1.74,-1.38 -0.456,-0.584 -0.788,-1.276 -0.996,-2.076 -0.208,-0.8 -0.312,-1.656 -0.312,-2.568 0,-0.864 0.112,-1.696 0.336,-2.496 0.224,-0.8 0.564,-1.5 1.02,-2.1 0.456,-0.6 1.032,-1.08 1.728,-1.44 0.696,-0.36 1.516,-0.54 2.46,-0.54 0.88,0 1.724,0.196 2.532,0.588 0.808,0.392 1.444,0.972 1.908,1.74 z" id="path9" />
    <path d="m 128.936,36.517 c -0.608,0.256 -1.224,0.424 -1.848,0.504 -0.624,0.08 -1.248,0.144 -1.872,0.192 -1.104,0.08 -1.964,0.328 -2.58,0.744 -0.616,0.416 -0.924,1.048 -0.924,1.896 0,0.384 0.076,0.716 0.228,0.996 0.152,0.28 0.352,0.512 0.6,0.696 0.248,0.184 0.536,0.32 0.864,0.408 0.328,0.088 0.66,0.132 0.996,0.132 0.576,0 1.136,-0.072 1.68,-0.216 0.544,-0.144 1.028,-0.364 1.452,-0.66 0.424,-0.296 0.764,-0.672 1.02,-1.128 0.256,-0.456 0.384,-0.996 0.384,-1.62 z m -2.424,-0.72 c 0.272,-0.032 0.596,-0.08 0.972,-0.144 0.376,-0.064 0.684,-0.152 0.924,-0.264 0.24,-0.112 0.388,-0.3 0.444,-0.564 0.056,-0.264 0.084,-0.508 0.084,-0.732 0,-0.736 -0.236,-1.34 -0.708,-1.812 -0.472,-0.472 -1.268,-0.708 -2.388,-0.708 -0.496,0 -0.952,0.044 -1.368,0.132 -0.416,0.088 -0.78,0.24 -1.092,0.456 -0.312,0.216 -0.568,0.504 -0.768,0.864 -0.2,0.36 -0.332,0.812 -0.396,1.356 h -1.464 c 0.048,-0.736 0.216,-1.364 0.504,-1.884 0.288,-0.52 0.66,-0.944 1.116,-1.272 0.456,-0.328 0.984,-0.568 1.584,-0.72 0.6,-0.152 1.236,-0.228 1.908,-0.228 0.624,0 1.212,0.068 1.764,0.204 0.552,0.136 1.032,0.352 1.44,0.648 0.408,0.296 0.728,0.692 0.96,1.188 0.232,0.496 0.348,1.104 0.348,1.824 v 6.768 c 0,0.56 0.1,0.916 0.3,1.068 0.2,0.152 0.604,0.116 1.212,-0.108 v 1.128 c -0.112,0.032 -0.276,0.08 -0.492,0.144 -0.216,0.064 -0.428,0.096 -0.636,0.096 -0.224,0 -0.44,-0.024 -0.648,-0.072 -0.24,-0.032 -0.432,-0.108 -0.576,-0.228 -0.144,-0.12 -0.26,-0.264 -0.348,-0.432 -0.088,-0.168 -0.148,-0.352 -0.18,-0.552 -0.032,-0.2 -0.048,-0.412 -0.048,-0.636 -0.608,0.672 -1.304,1.184 -2.088,1.536 -0.784,0.352 -1.632,0.528 -2.544,0.528 -0.544,0 -1.068,-0.072 -1.572,-0.216 -0.504,-0.144 -0.948,-0.368 -1.332,-0.672 -0.384,-0.304 -0.688,-0.676 -0.912,-1.116 -0.224,-0.44 -0.336,-0.964 -0.336,-1.572 0,-2.112 1.448,-3.36 4.344,-3.744 z" id="path10" />
    <path d="m 134.048,46.429 c 0.192,0.032 0.388,0.064 0.588,0.096 0.2,0.032 0.404,0.048 0.612,0.048 0.4,0 0.728,-0.128 0.984,-0.384 0.256,-0.256 0.468,-0.564 0.636,-0.924 0.168,-0.36 0.308,-0.736 0.42,-1.128 0.112,-0.392 0.24,-0.724 0.384,-0.996 l -4.824,-12.528 h 1.608 l 3.984,10.68 3.984,-10.68 h 1.56 l -4.632,12.264 c -0.288,0.784 -0.564,1.488 -0.828,2.112 -0.264,0.624 -0.544,1.156 -0.84,1.596 -0.296,0.44 -0.624,0.776 -0.984,1.008 -0.36,0.232 -0.788,0.348 -1.284,0.348 -0.256,0 -0.5,-0.016 -0.732,-0.048 -0.232,-0.032 -0.444,-0.072 -0.636,-0.12 z" id="path11" />
  </g>
  <path id="Line-2-Copy" d="M 2.918,2.8 H 64.918001" style="fill:none;stroke-width:5.6px" />
</svg>