<?xml version="1.0" encoding="UTF-8"?>
<svg clip-rule="evenodd" fill-rule="evenodd" stroke-linecap="square" version="1.1" viewBox="0 0 144 48" xml:space="preserve" xmlns="http://www.w3.org/2000/svg" width="35mm" height="11.5mm"
><g id="a" transform="translate(-8.627,-8.745)" fill-rule="nonzero"><path d="m20.15 35.54v7.5h-3.41v-7.77c0-0.687-0.117-1.242-0.351-1.664-0.305-0.594-0.883-0.891-1.735-0.891-0.883 0-1.553 0.295-2.01 0.885s-0.685 1.432-0.685 2.526v6.914h-3.328v-17.22h3.328v6.105c0.484-0.742 1.045-1.259 1.681-1.552 0.637-0.293 1.307-0.44 2.01-0.44 0.789 0 1.506 0.137 2.151 0.41 0.644 0.274 1.173 0.692 1.588 1.254 0.351 0.477 0.566 0.967 0.644 1.471s0.117 1.326 0.117 2.467z"/><path d="m34.2 39.3c-0.086 0.758-0.48 1.527-1.184 2.308-1.093 1.242-2.625 1.864-4.593 1.864-1.625 0-3.059-0.524-4.301-1.571s-1.863-2.75-1.863-5.109c0-2.211 0.56-3.906 1.681-5.086s2.576-1.77 4.366-1.77c1.062 0 2.019 0.2 2.871 0.598 0.851 0.399 1.554 1.027 2.109 1.887 0.5 0.758 0.824 1.637 0.973 2.637 0.086 0.585 0.121 1.429 0.105 2.531h-8.742c0.047 1.281 0.449 2.179 1.207 2.695 0.461 0.32 1.016 0.481 1.664 0.481 0.688 0 1.246-0.196 1.676-0.586 0.234-0.211 0.441-0.504 0.621-0.879zm-3.305-3.914c-0.054-0.883-0.322-1.553-0.802-2.01-0.481-0.457-1.077-0.686-1.787-0.686-0.774 0-1.374 0.243-1.799 0.727-0.426 0.484-0.694 1.141-0.803 1.969z"/><path d="m48.24 25.8v17.25h-3.246v-1.77c-0.477 0.758-1.02 1.309-1.629 1.653-0.609 0.343-1.367 0.515-2.273 0.515-1.493 0-2.748-0.603-3.768-1.81-1.019-1.207-1.529-2.756-1.529-4.647 0-2.18 0.502-3.894 1.506-5.144s2.345-1.875 4.025-1.875c0.773 0 1.461 0.169 2.063 0.509 0.601 0.34 1.089 0.811 1.464 1.412v-6.093zm-9 10.94c0 1.18 0.234 2.121 0.703 2.824 0.461 0.711 1.164 1.067 2.11 1.067 0.945 0 1.664-0.352 2.156-1.055s0.738-1.613 0.738-2.731c0-1.562-0.394-2.679-1.183-3.351-0.485-0.406-1.047-0.609-1.688-0.609-0.977 0-1.693 0.369-2.15 1.107s-0.686 1.654-0.686 2.748z"/><path d="m62.2 39.3c-0.086 0.758-0.481 1.527-1.184 2.308-1.093 1.242-2.625 1.864-4.593 1.864-1.625 0-3.059-0.524-4.301-1.571s-1.864-2.75-1.864-5.109c0-2.211 0.561-3.906 1.682-5.086s2.576-1.77 4.365-1.77c1.063 0 2.02 0.2 2.871 0.598 0.852 0.399 1.555 1.027 2.11 1.887 0.5 0.758 0.824 1.637 0.972 2.637 0.086 0.585 0.122 1.429 0.106 2.531h-8.742c0.047 1.281 0.449 2.179 1.207 2.695 0.461 0.32 1.015 0.481 1.664 0.481 0.687 0 1.246-0.196 1.676-0.586 0.234-0.211 0.441-0.504 0.621-0.879zm-3.305-3.914c-0.055-0.883-0.322-1.553-0.803-2.01-0.48-0.457-1.076-0.686-1.787-0.686-0.773 0-1.373 0.243-1.799 0.727-0.425 0.484-0.693 1.141-0.802 1.969z"/><path d="m70.63 32.74c-1.133 0-1.911 0.48-2.332 1.441-0.219 0.508-0.329 1.157-0.329 1.946v6.914h-3.328v-12.75h3.223v1.863c0.43-0.656 0.836-1.129 1.219-1.418 0.687-0.516 1.558-0.773 2.613-0.773 1.32 0 2.4 0.345 3.24 1.037 0.84 0.691 1.26 1.838 1.26 3.439v8.602h-3.422v-7.77c0-0.672-0.09-1.187-0.269-1.547-0.328-0.656-0.953-0.984-1.875-0.984z"/><path d="m78.99 45.2h-1.344l5.64-19.9h1.344z"/><path d="m90.49 43.09c-0.176 0.032-0.408 0.088-0.696 0.168s-0.608 0.12-0.96 0.12c-0.72 0-1.268-0.18-1.644-0.54s-0.564-1.004-0.564-1.932v-9.096h-1.752v-1.2h1.752v-3.456h1.44v3.456h2.328v1.2h-2.328v8.52c0 0.304 8e-3 0.568 0.024 0.792s0.064 0.408 0.144 0.552 0.204 0.248 0.372 0.312 0.404 0.096 0.708 0.096c0.192 0 0.388-0.016 0.588-0.048s0.396-0.072 0.588-0.12z"/><path d="m97.74 43.38c-0.8-0.016-1.548-0.16-2.244-0.432s-1.304-0.68-1.824-1.224-0.932-1.224-1.236-2.04-0.456-1.768-0.456-2.856c0-0.912 0.12-1.764 0.36-2.556s0.6-1.484 1.08-2.076 1.08-1.06 1.8-1.404 1.56-0.516 2.52-0.516c0.976 0 1.824 0.172 2.544 0.516s1.32 0.808 1.8 1.392 0.836 1.276 1.068 2.076 0.348 1.656 0.348 2.568c0 0.992-0.136 1.888-0.408 2.688s-0.66 1.488-1.164 2.064-1.112 1.02-1.824 1.332-1.5 0.468-2.364 0.468zm4.224-6.552c0-0.736-0.08-1.424-0.24-2.064s-0.408-1.196-0.744-1.668-0.768-0.844-1.296-1.116-1.176-0.408-1.944-0.408c-0.752 0-1.396 0.148-1.932 0.444s-0.972 0.688-1.308 1.176-0.584 1.048-0.744 1.68-0.24 1.284-0.24 1.956c0 0.768 0.092 1.476 0.276 2.124s0.452 1.204 0.804 1.668 0.792 0.824 1.32 1.08 1.136 0.384 1.824 0.384c0.752 0 1.396-0.148 1.932-0.444s0.972-0.692 1.308-1.188 0.584-1.056 0.744-1.68 0.24-1.272 0.24-1.944z"/><path d="m115.7 36.78c0-0.704-0.096-1.372-0.288-2.004s-0.468-1.184-0.828-1.656-0.8-0.848-1.32-1.128-1.108-0.42-1.764-0.42c-0.752 0-1.4 0.148-1.944 0.444s-0.992 0.7-1.344 1.212-0.608 1.108-0.768 1.788-0.224 1.412-0.192 2.196c0 0.784 0.108 1.476 0.324 2.076s0.516 1.108 0.9 1.524 0.832 0.732 1.344 0.948 1.072 0.324 1.68 0.324c0.672 0 1.272-0.136 1.8-0.408s0.968-0.644 1.32-1.116 0.62-1.032 0.804-1.68 0.276-1.348 0.276-2.1zm0-11.02h1.44v17.28h-1.44v-2.184h-0.048c-0.208 0.416-0.476 0.78-0.804 1.092s-0.688 0.572-1.08 0.78-0.796 0.368-1.212 0.48-0.824 0.168-1.224 0.168c-1.008 0-1.864-0.168-2.568-0.504s-1.284-0.796-1.74-1.38-0.788-1.276-0.996-2.076-0.312-1.656-0.312-2.568c0-0.864 0.112-1.696 0.336-2.496s0.564-1.5 1.02-2.1 1.032-1.08 1.728-1.44 1.516-0.54 2.46-0.54c0.88 0 1.724 0.196 2.532 0.588s1.444 0.972 1.908 1.74z"/><path d="m128.9 36.52c-0.608 0.256-1.224 0.424-1.848 0.504s-1.248 0.144-1.872 0.192c-1.104 0.08-1.964 0.328-2.58 0.744s-0.924 1.048-0.924 1.896c0 0.384 0.076 0.716 0.228 0.996s0.352 0.512 0.6 0.696 0.536 0.32 0.864 0.408 0.66 0.132 0.996 0.132c0.576 0 1.136-0.072 1.68-0.216s1.028-0.364 1.452-0.66 0.764-0.672 1.02-1.128 0.384-0.996 0.384-1.62zm-2.424-0.72c0.272-0.032 0.596-0.08 0.972-0.144s0.684-0.152 0.924-0.264 0.388-0.3 0.444-0.564 0.084-0.508 0.084-0.732c0-0.736-0.236-1.34-0.708-1.812s-1.268-0.708-2.388-0.708c-0.496 0-0.952 0.044-1.368 0.132s-0.78 0.24-1.092 0.456-0.568 0.504-0.768 0.864-0.332 0.812-0.396 1.356h-1.464c0.048-0.736 0.216-1.364 0.504-1.884s0.66-0.944 1.116-1.272 0.984-0.568 1.584-0.72 1.236-0.228 1.908-0.228c0.624 0 1.212 0.068 1.764 0.204s1.032 0.352 1.44 0.648 0.728 0.692 0.96 1.188 0.348 1.104 0.348 1.824v6.768c0 0.56 0.1 0.916 0.3 1.068s0.604 0.116 1.212-0.108v1.128c-0.112 0.032-0.276 0.08-0.492 0.144s-0.428 0.096-0.636 0.096c-0.224 0-0.44-0.024-0.648-0.072-0.24-0.032-0.432-0.108-0.576-0.228s-0.26-0.264-0.348-0.432-0.148-0.352-0.18-0.552-0.048-0.412-0.048-0.636c-0.608 0.672-1.304 1.184-2.088 1.536s-1.632 0.528-2.544 0.528c-0.544 0-1.068-0.072-1.572-0.216s-0.948-0.368-1.332-0.672-0.688-0.676-0.912-1.116-0.336-0.964-0.336-1.572c0-2.112 1.448-3.36 4.344-3.744z"/><path d="m134 46.43c0.192 0.032 0.388 0.064 0.588 0.096s0.404 0.048 0.612 0.048c0.4 0 0.728-0.128 0.984-0.384s0.468-0.564 0.636-0.924 0.308-0.736 0.42-1.128 0.24-0.724 0.384-0.996l-4.824-12.53h1.608l3.984 10.68 3.984-10.68h1.56l-4.632 12.26c-0.288 0.784-0.564 1.488-0.828 2.112s-0.544 1.156-0.84 1.596-0.624 0.776-0.984 1.008-0.788 0.348-1.284 0.348c-0.256 0-0.5-0.016-0.732-0.048s-0.444-0.072-0.636-0.12z"/></g><path id="b" d="m2.918 2.8h62" fill="none" stroke="#000" stroke-width="5.6px"/></svg>
