<svg width="171" height="45" viewBox="0 0 171 45" version="1.1" xmlns="http://www.w3.org/2000/svg"><title>Slice 1</title><description>Created with Sketch (http://www.bohemiancoding.com/sketch)</description><g stroke="none" stroke-width="1" fill="none" fill-rule="evenodd"><g transform="translate(1.000000, 1.000000)"><path d="M43.3 3.4L43.3 3.3C43.2 1.3 41.6-0.4 39.6-0.4L3.3-0.4C1.3-0.4-0.3 1.3-0.4 3.3L-0.4 3.4 -0.4 39.5 -0.4 39.6C-0.4 41.6 1.2 43.2 3.2 43.3L39.6 43.3C41.6 43.2 43.3 41.6 43.3 39.6L43.3 39.5 43.3 3.4Z" fill="#EA8830"/><path d="M5.4 5.4L37.3 5.4 37.3 37.3 5.4 37.3 5.4 5.4Z" fill="#FFFFFF"/><path d="M19.4 25.3L19.4 25.3 19.4 25.3 19.4 25.3Z" fill="#7A7E80"/><path d="M18.5 26.2L18.5 26.2 18.4 26.2 18.5 26.2Z" fill="#7A7E80"/><path d="M19.4 16.1L19.4 16.1 19.4 16.2 19.4 16.1Z" fill="#7A7E80"/><path d="M8.4 25.3L8.4 25.3 8.4 25.3 8.4 25.3Z" fill="#7A7E80"/><path d="M9.3 26.2L9.3 26.2 9.3 26.2 9.3 26.2Z" fill="#7A7E80"/><path d="M8.4 16.1L8.4 16.2 8.4 16.1 8.4 16.1Z" fill="#7A7E80"/><path d="M19.4 16.2L19.4 16.1C19.4 15.6 19 15.2 18.5 15.2L9.3 15.2C8.8 15.2 8.4 15.6 8.4 16.1L8.4 25.3C8.4 25.8 8.8 26.2 9.3 26.2L18.5 26.2C19 26.2 19.4 25.8 19.4 25.3L19.4 25.3 19.4 16.2Z" fill="#7A7E80"/><path d="M107.2 28.4L94.3 28.4C93.4 28.4 92.7 27.7 92.7 26.8L92.7 12.3 96 12.3 96 25.3 105.6 25.3 105.6 12.3 108.9 12.3 108.9 26.8C108.9 27.7 108.2 28.4 107.2 28.4L107.2 28.4Z" fill="#1A1A18"/><path d="M126 28.4L116.3 17.3 116.3 28.4 113.1 28.4 113.1 12.3 116.3 12.3 126 23.4 126 12.3 129.2 12.3 129.2 28.4 126 28.4Z" fill="#1A1A18"/><path d="M162.6 15.4L162.6 28.4 159.4 28.4 159.4 15.4 152.9 15.4 152.9 12.3 169.1 12.3 169.1 15.4 162.6 15.4Z" fill="#1A1A18"/><path d="M68.9 12.3L56 12.3C55.1 12.3 54.4 13 54.4 13.9L54.4 26.8C54.4 27.7 55.1 28.4 56 28.4L60.8 28.4 60.8 30 64.1 30 64.1 28.4 68.9 28.4C69.8 28.4 70.5 27.7 70.5 26.8L70.5 13.9C70.5 13 69.8 12.3 68.9 12.3L68.9 12.3ZM67.3 25.3L64.1 25.3 64.1 23.5 60.8 23.5 60.8 25.3 57.6 25.3 57.6 15.4 67.3 15.4 67.3 25.3Z" fill="#7A7E80"/><path d="M149.6 15.4L149.6 13.9C149.6 13 148.9 12.3 148 12.3L135.1 12.3C134.2 12.3 133.5 13 133.5 13.9L133.5 20.3C133.5 21.2 134.2 21.9 135.1 21.9L146.4 21.9 146.4 25.3 136.7 25.3 133.5 25.3 133.5 26.8C133.5 27.7 134.2 28.4 135.1 28.4L148 28.4C148.9 28.4 149.6 27.7 149.6 26.8L149.6 20.4C149.6 19.5 148.9 18.8 148 18.8L136.7 18.8 136.7 15.4 146.4 15.4 149.6 15.4Z" fill="#1A1A18"/><path d="M74.7 12.3L77.9 12.3 77.9 28.4 74.7 28.4 74.7 12.3Z" fill="#1A1A18"/><path d="M81.9 19.1L89.4 12.3 85.4 12.3 77.8 19.2 77.8 22.9 79.6 21.2 85.4 28.4 89.4 28.4 81.9 19.1Z" fill="#1A1A18"/><path d="M61.9 34.8L61.6 36C61.2 35.7 60.7 35.6 60.1 35.6 59.1 35.6 58.4 36 57.8 36.7 57.2 37.5 56.9 38.4 56.9 39.5 56.9 40.2 57.1 40.7 57.5 41.1 57.8 41.5 58.3 41.8 58.8 41.8 59.5 41.8 60.2 41.5 60.9 41.1L60.8 42.6C60.1 42.9 59.3 43 58.5 43 57.5 43 56.7 42.7 56.2 42.1 55.6 41.5 55.3 40.8 55.3 39.8 55.3 38.2 55.8 36.9 56.6 35.9 57.5 34.9 58.6 34.3 60 34.3 60.8 34.3 61.4 34.5 61.9 34.8ZM62.6 39.8C62.6 38.3 63 37 63.9 35.9 64.7 34.9 65.9 34.3 67.2 34.3 68.2 34.3 69 34.6 69.5 35.2 70.1 35.7 70.3 36.5 70.3 37.5 70.3 38.3 70.2 39.1 69.9 40 69.5 40.9 69 41.6 68.3 42.2 67.6 42.7 66.7 43 65.7 43 64.7 43 63.9 42.7 63.4 42.2 62.8 41.6 62.6 40.8 62.6 39.8ZM64.1 39.7C64.1 41.1 64.7 41.8 65.9 41.8 66.8 41.8 67.5 41.4 68 40.5 68.5 39.7 68.8 38.7 68.8 37.6 68.8 36.2 68.2 35.6 67 35.6 66.4 35.6 65.9 35.8 65.4 36.2 65 36.6 64.6 37.2 64.4 37.8 64.2 38.5 64.1 39.1 64.1 39.7ZM74.4 41.9L74.2 43C72.5 43 71.7 42.4 71.7 41.2 71.7 40.8 71.8 40 72.1 38.7L73.6 31.1 75.1 31.1 73.7 38.2C73.4 39.7 73.3 40.6 73.3 41 73.3 41.6 73.6 41.9 74.4 41.9ZM79.5 41.9L79.3 43C77.7 43 76.8 42.4 76.8 41.2 76.8 40.8 77 40 77.2 38.7L78.7 31.1 80.3 31.1 78.8 38.2C78.5 39.7 78.4 40.6 78.4 41 78.4 41.6 78.8 41.9 79.5 41.9ZM83.3 38.9C83.2 39.2 83.2 39.4 83.2 39.6 83.2 40.3 83.4 40.9 83.8 41.2 84.1 41.6 84.7 41.8 85.4 41.8 86 41.8 86.6 41.5 87.2 41.1L87.1 42.6C86.2 42.9 85.5 43 84.9 43 82.7 43 81.6 41.8 81.6 39.4 81.6 38 82.1 36.8 83 35.8 83.9 34.8 85 34.3 86.4 34.3 87.2 34.3 87.9 34.5 88.4 34.9 88.9 35.2 89.1 35.7 89.1 36.4 89.1 37.3 88.8 38 88 38.5 87.2 39.1 86.3 39.3 85.1 39.3 84.4 39.3 83.8 39.2 83.3 38.9ZM83.5 37.8C83.9 38 84.4 38.1 84.9 38.1 85.7 38.1 86.4 38 86.9 37.7 87.4 37.4 87.7 37.1 87.7 36.6 87.7 35.9 87.2 35.6 86.3 35.6 85 35.6 84.1 36.3 83.5 37.8ZM96.7 34.8L96.4 36C96 35.7 95.5 35.6 94.9 35.6 93.9 35.6 93.2 36 92.6 36.7 92 37.5 91.7 38.4 91.7 39.5 91.7 40.2 91.9 40.7 92.2 41.1 92.6 41.5 93.1 41.8 93.6 41.8 94.3 41.8 95 41.5 95.7 41.1L95.6 42.6C94.9 42.9 94.1 43 93.3 43 92.3 43 91.5 42.7 90.9 42.1 90.4 41.5 90.1 40.8 90.1 39.8 90.1 38.2 90.6 36.9 91.4 35.9 92.3 34.9 93.4 34.3 94.8 34.3 95.6 34.3 96.2 34.5 96.7 34.8ZM99.3 35.7L98.3 35.7 98.6 34.5 99.5 34.5 99.9 32.8 101.6 32.1 101 34.5 103.3 34.5 103.1 35.7 100.8 35.7 99.9 39.8C99.8 40.2 99.8 40.4 99.8 40.6 99.8 41.4 100.2 41.8 101 41.8 101.4 41.8 101.8 41.7 102.2 41.5L102.2 42.8C101.7 42.9 101 43 100.1 43 99.5 43 99 42.8 98.7 42.5 98.4 42.1 98.2 41.6 98.2 41 98.2 40.8 98.2 40.6 98.3 40.4L99.3 35.7ZM107 31.2C107.3 31.2 107.5 31.3 107.7 31.5 107.9 31.7 108 32 108 32.3 108 32.5 107.9 32.8 107.7 33 107.5 33.2 107.3 33.3 107 33.3 106.7 33.3 106.4 33.2 106.2 33 106 32.8 105.9 32.5 105.9 32.3 105.9 32 106 31.7 106.2 31.5 106.4 31.3 106.7 31.2 107 31.2ZM104.6 42.9L105.8 35.8 104.7 35.8 105 34.5 107.6 34.5 106.1 42.9 104.6 42.9ZM110.8 38.9C110.8 39.2 110.8 39.4 110.8 39.6 110.8 40.3 111 40.9 111.3 41.2 111.7 41.6 112.3 41.8 113 41.8 113.6 41.8 114.2 41.5 114.8 41.1L114.7 42.6C113.8 42.9 113.1 43 112.4 43 110.3 43 109.2 41.8 109.2 39.4 109.2 38 109.7 36.8 110.6 35.8 111.5 34.8 112.6 34.3 114 34.3 114.8 34.3 115.5 34.5 116 34.9 116.5 35.2 116.7 35.7 116.7 36.4 116.7 37.3 116.3 38 115.6 38.5 114.8 39.1 113.8 39.3 112.7 39.3 112 39.3 111.3 39.2 110.8 38.9ZM111.1 37.8C111.5 38 111.9 38.1 112.5 38.1 113.3 38.1 114 38 114.5 37.7 115 37.4 115.3 37.1 115.3 36.6 115.3 35.9 114.8 35.6 113.9 35.6 112.6 35.6 111.6 36.3 111.1 37.8ZM119 42.1L118.2 43 117.2 43C117.5 42.1 117.8 40.9 118.1 39.6L119.6 31.1 121 31.1 120.3 35.4C120.7 34.7 121.4 34.3 122.4 34.3 123.3 34.3 124 34.7 124.6 35.3 125.2 36 125.5 36.9 125.5 38 125.5 39.3 125 40.5 124.1 41.5 123.2 42.5 122.1 43 120.7 43 119.9 43 119.3 42.7 119 42.1ZM120.1 36.7L119.3 40.8C119.3 40.9 119.4 41 119.5 41.2 119.6 41.3 119.8 41.5 120 41.6 120.2 41.7 120.5 41.8 120.7 41.8 121.6 41.8 122.3 41.4 123 40.6 123.6 39.9 123.9 39 123.9 38.1 123.9 36.4 123.1 35.6 121.6 35.6 121 35.6 120.5 36 120.1 36.7ZM128.3 38.9C128.3 39.2 128.3 39.4 128.3 39.6 128.3 40.3 128.5 40.9 128.8 41.2 129.2 41.6 129.8 41.8 130.5 41.8 131.1 41.8 131.7 41.5 132.3 41.1L132.2 42.6C131.3 42.9 130.6 43 130 43 127.8 43 126.7 41.8 126.7 39.4 126.7 38 127.2 36.8 128.1 35.8 129 34.8 130.1 34.3 131.5 34.3 132.3 34.3 133 34.5 133.5 34.9 134 35.2 134.2 35.7 134.2 36.4 134.2 37.3 133.8 38 133.1 38.5 132.3 39.1 131.4 39.3 130.2 39.3 129.5 39.3 128.9 39.2 128.3 38.9ZM128.6 37.8C129 38 129.5 38.1 130 38.1 130.8 38.1 131.5 38 132 37.7 132.5 37.4 132.8 37.1 132.8 36.6 132.8 35.9 132.3 35.6 131.4 35.6 130.1 35.6 129.1 36.3 128.6 37.8ZM140.3 42.9L141.2 37.6C141.2 37.4 141.2 37.2 141.2 37 141.2 36.1 140.8 35.6 139.8 35.6 139.5 35.6 139.1 35.7 138.7 35.9 138.3 36.1 138 36.4 137.7 36.6L136.6 42.9 135.1 42.9 137.1 31.1 138.6 31.1 137.9 35.4C138.2 35.1 138.6 34.9 139 34.7 139.5 34.4 140 34.3 140.5 34.3 141.2 34.3 141.8 34.6 142.2 35 142.6 35.4 142.8 36 142.8 36.8 142.8 37 142.8 37.3 142.7 37.6L141.8 42.9 140.3 42.9ZM145.8 38.9C145.8 39.2 145.8 39.4 145.8 39.6 145.8 40.3 146 40.9 146.4 41.2 146.7 41.6 147.3 41.8 148 41.8 148.6 41.8 149.2 41.5 149.8 41.1L149.7 42.6C148.8 42.9 148.1 43 147.5 43 145.3 43 144.2 41.8 144.2 39.4 144.2 38 144.7 36.8 145.6 35.8 146.5 34.8 147.6 34.3 149 34.3 149.8 34.3 150.5 34.5 151 34.9 151.5 35.2 151.7 35.7 151.7 36.4 151.7 37.3 151.3 38 150.6 38.5 149.8 39.1 148.9 39.3 147.7 39.3 147 39.3 146.4 39.2 145.8 38.9ZM146.1 37.8C146.5 38 147 38.1 147.5 38.1 148.3 38.1 149 38 149.5 37.7 150 37.4 150.3 37.1 150.3 36.6 150.3 35.9 149.8 35.6 148.9 35.6 147.6 35.6 146.6 36.3 146.1 37.8ZM154.4 38.9C154.4 39.2 154.4 39.4 154.4 39.6 154.4 40.3 154.6 40.9 154.9 41.2 155.3 41.6 155.9 41.8 156.6 41.8 157.2 41.8 157.8 41.5 158.4 41.1L158.3 42.6C157.4 42.9 156.7 43 156.1 43 153.9 43 152.8 41.8 152.8 39.4 152.8 38 153.3 36.8 154.2 35.8 155.1 34.8 156.2 34.3 157.6 34.3 158.4 34.3 159.1 34.5 159.6 34.9 160.1 35.2 160.3 35.7 160.3 36.4 160.3 37.3 159.9 38 159.2 38.5 158.4 39.1 157.5 39.3 156.3 39.3 155.6 39.3 155 39.2 154.4 38.9ZM154.7 37.8C155.1 38 155.6 38.1 156.1 38.1 156.9 38.1 157.6 38 158.1 37.7 158.6 37.4 158.9 37.1 158.9 36.6 158.9 35.9 158.4 35.6 157.5 35.6 156.2 35.6 155.2 36.3 154.7 37.8ZM167.1 36C166.8 35.7 166.4 35.6 166 35.6 165.5 35.6 165 35.8 164.5 36.3 164 36.8 163.7 37.4 163.6 38.1L162.8 42.9 161.3 42.9 162.8 34.5 164.3 34.5 164 35.8C164.7 34.8 165.6 34.3 166.7 34.3 166.9 34.3 167.2 34.4 167.5 34.5L167.1 36Z" fill="#2A2828"/></g></g></svg>