<?xml version="1.0" encoding="UTF-8"?>
<svg width="123px" height="39px" viewBox="0 0 123 39" version="1.1" xmlns="http://www.w3.org/2000/svg" xmlns:xlink="http://www.w3.org/1999/xlink">
    <title>collectiemanagementlogo</title>
    <g id="Page-1" stroke="none" stroke-width="1" fill="none" fill-rule="evenodd">
        <g id="logo2">
            <g id="QKUNST_LOGO_TEXT-01" fill="#A18372" fill-rule="nonzero">
                <path d="M15.1025,13.1436 C15.6535,12.3776 15.9395,11.3966 15.9395,10.4886 C15.9395,7.7846 13.6915,5.3436 10.8685,5.3436 C8.0665,5.3436 5.7485,7.6156 5.7485,10.1046 C5.7485,13.2156 8.0665,15.4896 10.8685,15.4896 C11.3455,15.4896 11.8255,15.4166 12.3025,15.2486 L9.4085,12.3776 L13.8335,11.8286 L15.1025,13.1436 Z M17.2325,20.5616 L15.7965,18.8626 C14.4085,19.7006 12.7815,20.0346 10.8435,20.0346 C5.0535,20.0346 0.8655,15.9196 0.8655,10.0806 C0.8655,4.6256 5.6525,0.7966 10.8435,0.7966 C16.4665,0.7966 20.8205,4.6026 20.8205,10.4636 C20.8205,12.8566 20.0065,14.9396 18.5005,16.8036 L21.5375,19.8916 L17.2325,20.5616 Z" id="Fill-1"></path>
                <polygon id="Fill-3" points="36.9893 1.396 42.8033 1.396 35.6273 9.939 43.4513 19.437 37.3723 19.437 31.3183 11.613 31.2713 11.613 31.2713 19.437 26.5823 19.437 26.5823 1.396 31.2713 1.396 31.2713 8.839 31.3183 8.839"></polygon>
                <path d="M63.3535,1.396 L63.3535,11.541 C63.3535,13.861 63.2585,16.159 61.4625,17.905 C59.9545,19.389 57.5845,19.916 55.4795,19.916 C53.3745,19.916 51.0055,19.389 49.4995,17.905 C47.7035,16.159 47.6075,13.861 47.6075,11.541 L47.6075,1.396 L52.2975,1.396 L52.2975,10.896 C52.2975,13.24 52.4665,15.799 55.4795,15.799 C58.4965,15.799 58.6635,13.24 58.6635,10.896 L58.6635,1.396 L63.3535,1.396 Z" id="Fill-5"></path>
                <polygon id="Fill-7" points="69.3057 1.396 73.9957 1.396 82.5847 12.427 82.6327 12.427 82.6327 1.396 87.3207 1.396 87.3207 19.437 82.6327 19.437 74.0427 8.382 73.9957 8.382 73.9957 19.437 69.3057 19.437"></polygon>
                <path d="M103.2773,6.0381 C102.4153,5.3201 101.3143,4.8411 100.1663,4.8411 C99.3043,4.8411 98.1563,5.3441 98.1563,6.3491 C98.1563,7.4011 99.4253,7.8071 100.2383,8.0711 L101.4333,8.4311 C103.9473,9.1721 105.8843,10.4401 105.8843,13.3601 C105.8843,15.1551 105.4543,16.9961 104.0183,18.2171 C102.6053,19.4131 100.7163,19.9151 98.8983,19.9151 C96.6263,19.9151 94.4003,19.1491 92.5563,17.8581 L94.5663,14.0771 C95.7383,15.1061 97.1273,15.9451 98.7313,15.9451 C99.8313,15.9451 101.0043,15.3921 101.0043,14.1241 C101.0043,12.8091 99.1613,12.3521 98.1563,12.0681 C95.2133,11.2301 93.2743,10.4641 93.2743,6.9721 C93.2743,3.3111 95.8823,0.9171 99.4973,0.9171 C101.3143,0.9171 103.5383,1.4911 105.1423,2.4011 L103.2773,6.0381 Z" id="Fill-9"></path>
                <polygon id="Fill-11" points="118.2744 19.437 113.5844 19.437 113.5844 5.368 109.7094 5.368 109.7094 1.396 122.1494 1.396 122.1494 5.368 118.2744 5.368"></polygon>
            </g>
            <g
               aria-label="Collectiemanagement"
               id="Collectiemanagement"
               style="font-weight:400;font-size:12.4px;font-family:Futura-Medium, Futura;fill:#8f705f">
              <path
                 d="m 9.0285154,26.154102 v 1.671094 q -1.2230469,-1.023243 -2.5308593,-1.023243 -1.4410156,0 -2.4279296,1.035352 -0.9929688,1.029297 -0.9929688,2.51875 0,1.471289 0.9929688,2.482422 0.9929687,1.011132 2.4339843,1.011132 0.7447265,0 1.2654296,-0.242187 0.290625,-0.121094 0.5994141,-0.326953 0.3148437,-0.20586 0.6599609,-0.496485 v 1.701368 q -1.2109375,0.684179 -2.5429687,0.684179 -2.0041015,0 -3.4208983,-1.398633 -1.4107422,-1.410742 -1.4107422,-3.402734 0,-1.786133 1.1806641,-3.184765 1.4531249,-1.713477 3.7599608,-1.713477 1.2593749,0 2.4339843,0.68418 z"
                 id="path855" />
              <path
                 d="m 10.275781,32.008984 q 0,-1.277539 0.914258,-2.173632 0.914258,-0.896094 2.228125,-0.896094 1.319922,0 2.240234,0.902148 0.908204,0.902149 0.908204,2.216016 0,1.325976 -0.914258,2.22207 -0.920313,0.890039 -2.258399,0.890039 -1.325976,0 -2.22207,-0.908203 -0.896094,-0.896094 -0.896094,-2.252344 z m 1.392579,0.02422 q 0,0.883985 0.472265,1.398633 0.484375,0.520703 1.277539,0.520703 0.799219,0 1.277539,-0.514648 0.47832,-0.514649 0.47832,-1.374414 0,-0.859766 -0.47832,-1.374414 -0.484375,-0.520703 -1.277539,-0.520703 -0.781055,0 -1.26543,0.520703 -0.484374,0.520703 -0.484374,1.34414 z"
                 id="path857" />
              <path
                 d="M 19.375976,24.773633 V 35 H 18.013671 V 24.773633 Z"
                 id="path859" />
              <path
                 d="M 22.475976,24.773633 V 35 H 21.113672 V 24.773633 Z"
                 id="path861" />
              <path
                 d="m 29.58418,32.372266 h -4.226172 q 0.05449,0.726562 0.472266,1.156445 0.417773,0.423828 1.071679,0.423828 0.508594,0 0.841602,-0.242187 0.326953,-0.242188 0.744726,-0.896094 l 1.150391,0.641797 q -0.266406,0.454101 -0.563086,0.781054 -0.29668,0.320899 -0.635742,0.532813 -0.339063,0.205859 -0.732617,0.302734 -0.393555,0.09687 -0.853711,0.09687 -1.319922,0 -2.119141,-0.847656 -0.799218,-0.853711 -0.799218,-2.264453 0,-1.398633 0.775,-2.264453 0.781054,-0.853711 2.070703,-0.853711 1.301757,0 2.058593,0.829492 0.750782,0.823438 0.750782,2.282617 z m -1.398633,-1.114063 q -0.28457,-1.089843 -1.374414,-1.089843 -0.248242,0 -0.466211,0.07871 -0.217969,0.07266 -0.399609,0.217969 -0.175586,0.139258 -0.302735,0.339063 -0.127148,0.199804 -0.19375,0.454101 z"
                 id="path863" />
              <path
                 d="m 35.657032,29.357031 v 1.810352 q -0.466211,-0.569141 -0.835547,-0.781055 -0.363281,-0.217968 -0.853711,-0.217968 -0.768945,0 -1.277539,0.538867 -0.508594,0.538867 -0.508594,1.350195 0,0.829492 0.49043,1.362305 0.496484,0.532812 1.26543,0.532812 0.490429,0 0.86582,-0.211914 0.363281,-0.205859 0.853711,-0.799219 v 1.798242 q -0.829492,0.429883 -1.658984,0.429883 -1.36836,0 -2.288672,-0.883984 -0.920313,-0.890039 -0.920313,-2.209961 0,-1.319922 0.932422,-2.228125 0.932422,-0.908203 2.288672,-0.908203 0.871875,0 1.646875,0.417773 z"
                 id="path865" />
              <path
                 d="M 38.381641,30.374219 V 35 h -1.362305 v -4.625781 h -0.58125 v -1.271484 h 0.58125 v -2.161524 h 1.362305 v 2.161524 h 1.05957 v 1.271484 z"
                 id="path867" />
              <path
                 d="M 41.729883,29.102735 V 35 h -1.362305 v -5.897265 z m -1.568164,-2.452149 q 0,-0.357226 0.260351,-0.617578 0.260352,-0.260351 0.623633,-0.260351 0.369336,0 0.629688,0.260351 0.260351,0.254297 0.260351,0.623633 0,0.369336 -0.260351,0.629687 -0.254297,0.260352 -0.623633,0.260352 -0.369336,0 -0.629688,-0.260352 -0.260351,-0.260351 -0.260351,-0.635742 z"
                 id="path869" />
              <path
                 d="m 48.838084,32.372266 h -4.226172 q 0.05449,0.726562 0.472266,1.156445 0.417774,0.423828 1.07168,0.423828 0.508593,0 0.841601,-0.242187 0.326953,-0.242188 0.744727,-0.896094 l 1.15039,0.641797 q -0.266406,0.454101 -0.563086,0.781054 -0.296679,0.320899 -0.635742,0.532813 -0.339062,0.205859 -0.732617,0.302734 -0.393555,0.09687 -0.853711,0.09687 -1.319922,0 -2.11914,-0.847656 -0.799219,-0.853711 -0.799219,-2.264453 0,-1.398633 0.775,-2.264453 0.781055,-0.853711 2.070703,-0.853711 1.301758,0 2.058594,0.829492 0.750781,0.823438 0.750781,2.282617 z m -1.398633,-1.114063 q -0.28457,-1.089843 -1.374414,-1.089843 -0.248242,0 -0.46621,0.07871 -0.217969,0.07266 -0.39961,0.217969 -0.175586,0.139258 -0.302734,0.339063 -0.127149,0.199804 -0.19375,0.454101 z"
                 id="path871" />
              <path
                 d="m 50.321485,29.102735 h 1.362305 v 0.544921 q 0.393554,-0.411718 0.67207,-0.557031 0.29668,-0.151367 0.744727,-0.151367 0.999023,0 1.580273,0.871875 0.641797,-0.871875 1.737695,-0.871875 1.991992,0 1.991992,2.41582 V 35 h -1.368359 v -3.275586 q 0,-0.847656 -0.205859,-1.198828 -0.211914,-0.357226 -0.696289,-0.357226 -0.563086,0 -0.823438,0.423828 -0.254297,0.423828 -0.254297,1.362304 V 35 h -1.368359 v -3.257422 q 0,-1.574218 -0.908203,-1.574218 -0.575195,0 -0.841602,0.429882 -0.260351,0.429883 -0.260351,1.35625 V 35 h -1.362305 z"
                 id="path873" />
              <path
                 d="m 64.477344,29.102735 h 1.36836 V 35 h -1.36836 v -0.617578 q -0.841601,0.787109 -1.810351,0.787109 -1.223047,0 -2.022266,-0.883984 -0.793164,-0.902149 -0.793164,-2.252344 0,-1.325976 0.793164,-2.209961 0.793164,-0.883984 1.985938,-0.883984 1.029297,0 1.846679,0.847656 z m -3.233203,2.930468 q 0,0.847656 0.454102,1.380469 0.466211,0.538867 1.174609,0.538867 0.756836,0 1.223047,-0.520703 0.466211,-0.538867 0.466211,-1.368359 0,-0.829493 -0.466211,-1.36836 -0.466211,-0.526757 -1.210937,-0.526757 -0.702344,0 -1.17461,0.532812 -0.466211,0.538867 -0.466211,1.332031 z"
                 id="path875" />
              <path
                 d="m 67.565233,29.102735 h 1.368359 v 0.544921 q 0.714453,-0.708398 1.610547,-0.708398 1.029297,0 1.604492,0.647852 0.496484,0.550976 0.496484,1.798242 V 35 h -1.368359 v -3.29375 q 0,-0.871875 -0.242187,-1.204883 -0.236133,-0.339062 -0.859766,-0.339062 -0.678125,0 -0.962695,0.448047 -0.278516,0.441992 -0.278516,1.543945 V 35 h -1.368359 z"
                 id="path877" />
              <path
                 d="m 78.717964,29.102735 h 1.368359 V 35 h -1.368359 v -0.617578 q -0.841602,0.787109 -1.810351,0.787109 -1.223047,0 -2.022266,-0.883984 -0.793164,-0.902149 -0.793164,-2.252344 0,-1.325976 0.793164,-2.209961 0.793164,-0.883984 1.985937,-0.883984 1.029297,0 1.84668,0.847656 z m -3.233203,2.930468 q 0,0.847656 0.454102,1.380469 0.46621,0.538867 1.174609,0.538867 0.756836,0 1.223047,-0.520703 0.466211,-0.538867 0.466211,-1.368359 0,-0.829493 -0.466211,-1.36836 -0.466211,-0.526757 -1.210938,-0.526757 -0.702343,0 -1.174609,0.532812 -0.466211,0.538867 -0.466211,1.332031 z"
                 id="path879" />
              <path
                 d="m 87.509372,34.860742 q 0,0.417774 -0.03027,0.732617 -0.02422,0.320899 -0.07266,0.563086 -0.145312,0.666016 -0.569141,1.144336 -0.799218,0.920313 -2.197851,0.920313 -1.180664,0 -1.943555,-0.635743 Q 81.908786,36.931445 81.787692,35.775 h 1.36836 q 0.07871,0.435937 0.260351,0.67207 0.423828,0.550977 1.235156,0.550977 1.495508,0 1.495508,-1.83457 v -0.823438 q -0.811328,0.829492 -1.870898,0.829492 -1.204883,0 -1.973828,-0.871875 -0.775,-0.883984 -0.775,-2.209961 0,-1.289648 0.720507,-2.191796 0.775,-0.956641 2.046485,-0.956641 1.114062,0 1.852734,0.829492 v -0.666015 h 1.362305 z m -1.307813,-2.797265 q 0,-0.859766 -0.460156,-1.374414 -0.466211,-0.526758 -1.192773,-0.526758 -0.775,0 -1.223047,0.575195 -0.405664,0.514649 -0.405664,1.332031 0,0.805274 0.405664,1.319922 0.441992,0.563086 1.223047,0.563086 0.781054,0 1.235156,-0.569141 0.417773,-0.514648 0.417773,-1.319921 z"
                 id="path881" />
              <path
                 d="M 94.611522,32.372266 H 90.38535 q 0.05449,0.726562 0.472266,1.156445 0.417773,0.423828 1.071679,0.423828 0.508594,0 0.841602,-0.242187 0.326953,-0.242188 0.744726,-0.896094 l 1.150391,0.641797 q -0.266406,0.454101 -0.563086,0.781054 -0.29668,0.320899 -0.635742,0.532813 -0.339063,0.205859 -0.732617,0.302734 -0.393555,0.09687 -0.853711,0.09687 -1.319922,0 -2.119141,-0.847656 -0.799219,-0.853711 -0.799219,-2.264453 0,-1.398633 0.775,-2.264453 0.781055,-0.853711 2.070703,-0.853711 1.301758,0 2.058594,0.829492 0.750781,0.823438 0.750781,2.282617 z m -1.398633,-1.114063 q -0.28457,-1.089843 -1.374414,-1.089843 -0.248242,0 -0.466211,0.07871 -0.217969,0.07266 -0.399609,0.217969 -0.175586,0.139258 -0.302735,0.339063 -0.127148,0.199804 -0.19375,0.454101 z"
                 id="path883" />
              <path
                 d="m 96.094919,29.102735 h 1.362304 v 0.544921 q 0.393555,-0.411718 0.672071,-0.557031 0.296679,-0.151367 0.744726,-0.151367 0.999024,0 1.58027,0.871875 0.6418,-0.871875 1.7377,-0.871875 1.99199,0 1.99199,2.41582 V 35 h -1.36836 v -3.275586 q 0,-0.847656 -0.20586,-1.198828 -0.21191,-0.357226 -0.69629,-0.357226 -0.56308,0 -0.82343,0.423828 -0.2543,0.423828 -0.2543,1.362304 V 35 h -1.36836 v -3.257422 q 0,-1.574218 -0.908203,-1.574218 -0.575196,0 -0.841602,0.429882 -0.260352,0.429883 -0.260352,1.35625 V 35 h -1.362304 z"
                 id="path885" />
              <path
                 d="m 111.27402,32.372266 h -4.22617 q 0.0545,0.726562 0.47226,1.156445 0.41778,0.423828 1.07168,0.423828 0.5086,0 0.84161,-0.242187 0.32695,-0.242188 0.74472,-0.896094 l 1.15039,0.641797 q -0.2664,0.454101 -0.56308,0.781054 -0.29668,0.320899 -0.63575,0.532813 -0.33906,0.205859 -0.73261,0.302734 -0.39356,0.09687 -0.85371,0.09687 -1.31993,0 -2.11914,-0.847656 -0.79922,-0.853711 -0.79922,-2.264453 0,-1.398633 0.775,-2.264453 0.78105,-0.853711 2.0707,-0.853711 1.30176,0 2.05859,0.829492 0.75078,0.823438 0.75078,2.282617 z m -1.39863,-1.114063 q -0.28457,-1.089843 -1.37442,-1.089843 -0.24824,0 -0.46621,0.07871 -0.21797,0.07266 -0.39961,0.217969 -0.17558,0.139258 -0.30273,0.339063 -0.12715,0.199804 -0.19375,0.454101 z"
                 id="path887" />
              <path
                 d="m 112.75742,29.102735 h 1.36836 v 0.544921 q 0.71445,-0.708398 1.61054,-0.708398 1.0293,0 1.6045,0.647852 0.49648,0.550976 0.49648,1.798242 V 35 h -1.36836 v -3.29375 q 0,-0.871875 -0.24219,-1.204883 -0.23613,-0.339062 -0.85976,-0.339062 -0.67813,0 -0.9627,0.448047 -0.27851,0.441992 -0.27851,1.543945 V 35 h -1.36836 z"
                 id="path889" />
              <path
                 d="M 120.96758,30.374219 V 35 h -1.36231 v -4.625781 h -0.58125 v -1.271484 h 0.58125 v -2.161524 h 1.36231 v 2.161524 h 1.05957 v 1.271484 z"
                 id="path891" />
            </g>
        </g>
    </g>
</svg>