<?xml version="1.0" encoding="UTF-8"?>
<svg width="25mm" height="13mm" version="1.1" viewBox="0 0 61.22 23.18" xmlns="http://www.w3.org/2000/svg"><g transform="translate(-23.73 -78.64)"><g stroke-width=".2646" aria-label="Collection
Management"><path d="m29.41 81.1h1.005q-0.08467-0.6032-0.3598-1.058-0.2752-0.4657-0.6879-0.7726-0.4127-0.3069-0.9419-0.4657-0.5292-0.1587-1.122-0.1587-0.8678 0-1.545 0.3175-0.6667 0.3069-1.122 0.8467-0.4445 0.5397-0.6773 1.27-0.2328 0.7197-0.2328 1.545 0 0.8255 0.2117 1.545 0.2222 0.7197 0.6562 1.249 0.4339 0.5292 1.09 0.8361 0.6562 0.2963 1.535 0.2963 1.45 0 2.286-0.7937 0.8361-0.7937 0.9842-2.222h-1.005q-0.03175 0.4657-0.1905 0.8678-0.1587 0.4022-0.4445 0.6985-0.2752 0.2857-0.6667 0.4551-0.381 0.1588-0.8784 0.1588-0.6773 0-1.164-0.254-0.4868-0.254-0.8043-0.6773-0.3069-0.4339-0.4551-1.005-0.1482-0.5821-0.1482-1.228 0-0.5927 0.1482-1.143 0.1482-0.5503 0.4551-0.9737 0.3175-0.4339 0.7937-0.6879 0.4868-0.254 1.164-0.254 0.7937 0 1.365 0.4022 0.5821 0.4022 0.7514 1.206zm2.836 2.551q0-0.4974 0.127-0.8784 0.1376-0.3916 0.3704-0.6562 0.2328-0.2646 0.5397-0.4022 0.3175-0.1376 0.6667-0.1376t0.6562 0.1376q0.3175 0.1376 0.5503 0.4022 0.2328 0.2646 0.3598 0.6562 0.1376 0.381 0.1376 0.8784t-0.1376 0.889q-0.127 0.381-0.3598 0.6456-0.2328 0.254-0.5503 0.3916-0.3069 0.1376-0.6562 0.1376t-0.6667-0.1376q-0.3069-0.1376-0.5397-0.3916-0.2328-0.2646-0.3704-0.6456-0.127-0.3916-0.127-0.889zm-0.9525 0q0 0.6032 0.1693 1.122t0.508 0.9102q0.3387 0.381 0.8361 0.6032 0.4974 0.2117 1.143 0.2117 0.6562 0 1.143-0.2117 0.4974-0.2222 0.8361-0.6032 0.3387-0.3916 0.508-0.9102 0.1693-0.5186 0.1693-1.122t-0.1693-1.122q-0.1693-0.5292-0.508-0.9102-0.3387-0.3916-0.8361-0.6138-0.4868-0.2222-1.143-0.2222-0.6456 0-1.143 0.2222-0.4974 0.2222-0.8361 0.6138-0.3387 0.381-0.508 0.9102-0.1693 0.5186-0.1693 1.122zm6.424-4.826v7.556h0.8996v-7.556zm2.349 0v7.556h0.8996v-7.556zm6.096 4.297h-3.143q0.02117-0.3175 0.1376-0.5927 0.1164-0.2858 0.3175-0.4974 0.2011-0.2117 0.4762-0.3281 0.2857-0.127 0.635-0.127 0.3387 0 0.6138 0.127 0.2857 0.1164 0.4868 0.3281 0.2117 0.2011 0.3281 0.4868 0.127 0.2857 0.1482 0.6032zm0.8678 1.524h-0.889q-0.1164 0.5397-0.4868 0.8043-0.3598 0.2646-0.9313 0.2646-0.4445 0-0.7726-0.1482-0.3281-0.1482-0.5397-0.3916-0.2117-0.254-0.3069-0.5715-0.09525-0.3281-0.08467-0.6879h4.096q0.02117-0.4974-0.09525-1.048-0.1058-0.5503-0.4022-1.016-0.2857-0.4657-0.7726-0.762-0.4762-0.3069-1.206-0.3069-0.5609 0-1.037 0.2117-0.4657 0.2117-0.8149 0.5927-0.3387 0.381-0.5292 0.8996-0.1905 0.5186-0.1905 1.143 0.02117 0.6244 0.1799 1.154 0.1693 0.5292 0.4974 0.9102t0.8043 0.5927q0.4868 0.2117 1.143 0.2117 0.9313 0 1.545-0.4657 0.6138-0.4657 0.7937-1.386zm4.731-1.979h0.9313q-0.05292-0.4868-0.254-0.8361-0.2011-0.3598-0.5186-0.5927-0.3069-0.2328-0.7197-0.3387-0.4022-0.1164-0.8678-0.1164-0.6456 0-1.132 0.2328-0.4868 0.2222-0.8149 0.6244-0.3175 0.3916-0.4762 0.9313-0.1587 0.5292-0.1587 1.143 0 0.6138 0.1587 1.132 0.1693 0.508 0.4868 0.8784 0.3281 0.3704 0.8043 0.5715 0.4868 0.2011 1.111 0.2011 1.048 0 1.651-0.5503 0.6138-0.5503 0.762-1.566h-0.9207q-0.08467 0.635-0.4657 0.9842-0.3704 0.3492-1.037 0.3492-0.4233 0-0.7302-0.1693t-0.4974-0.4445q-0.1905-0.2857-0.2857-0.6456-0.08467-0.3598-0.08467-0.7408 0-0.4127 0.08467-0.7937 0.08467-0.3916 0.2752-0.6879 0.2011-0.2963 0.5292-0.4762 0.3281-0.1799 0.8149-0.1799 0.5715 0 0.9102 0.2857 0.3387 0.2857 0.4445 0.8043zm3.217-1.757v-1.64h-0.8996v1.64h-0.9313v0.7937h0.9313v3.482q0 0.381 0.07408 0.6138 0.07408 0.2328 0.2222 0.3598 0.1588 0.127 0.4022 0.1799 0.254 0.04233 0.6032 0.04233h0.6879v-0.7937h-0.4127q-0.2117 0-0.3492-0.01058-0.127-0.02117-0.2011-0.07408-0.07408-0.05292-0.1058-0.1482-0.02117-0.09525-0.02117-0.254v-3.397h1.09v-0.7937zm3.037-0.9842v-1.101h-0.8996v1.101zm-0.8996 0.9842v5.472h0.8996v-5.472zm2.953 2.741q0-0.4974 0.127-0.8784 0.1376-0.3916 0.3704-0.6562 0.2328-0.2646 0.5397-0.4022 0.3175-0.1376 0.6667-0.1376t0.6562 0.1376q0.3175 0.1376 0.5503 0.4022 0.2328 0.2646 0.3598 0.6562 0.1376 0.381 0.1376 0.8784t-0.1376 0.889q-0.127 0.381-0.3598 0.6456-0.2328 0.254-0.5503 0.3916-0.3069 0.1376-0.6562 0.1376t-0.6667-0.1376q-0.3069-0.1376-0.5397-0.3916-0.2328-0.2646-0.3704-0.6456-0.127-0.3916-0.127-0.889zm-0.9525 0q0 0.6032 0.1693 1.122t0.508 0.9102q0.3387 0.381 0.8361 0.6032 0.4974 0.2117 1.143 0.2117 0.6562 0 1.143-0.2117 0.4974-0.2222 0.8361-0.6032 0.3387-0.3916 0.508-0.9102t0.1693-1.122-0.1693-1.122q-0.1693-0.5292-0.508-0.9102-0.3387-0.3916-0.8361-0.6138-0.4868-0.2222-1.143-0.2222-0.6456 0-1.143 0.2222-0.4974 0.2222-0.8361 0.6138-0.3387 0.381-0.508 0.9102-0.1693 0.5186-0.1693 1.122zm6.371-2.741v5.472h0.8996v-3.09q0-0.3704 0.09525-0.6773 0.1058-0.3175 0.3069-0.5503 0.2011-0.2328 0.4974-0.3598 0.3069-0.127 0.7197-0.127 0.5186 0 0.8149 0.2963 0.2963 0.2963 0.2963 0.8043v3.704h0.8996v-3.598q0-0.4445-0.09525-0.8043-0.08467-0.3704-0.3069-0.635-0.2222-0.2646-0.5821-0.4127-0.3598-0.1482-0.8996-0.1482-1.217 0-1.778 0.9948h-0.02117v-0.8678z"/><path d="m24.12 92.05v7.556h0.9525v-6.286h0.02117l2.36 6.286h0.8572l2.36-6.286h0.02117v6.286h0.9525v-7.556h-1.376l-2.392 6.35-2.381-6.35zm13.9 7.535q-0.2328 0.1376-0.6456 0.1376-0.3492 0-0.5609-0.1905-0.2011-0.2011-0.2011-0.6456-0.3704 0.4445-0.8678 0.6456-0.4868 0.1905-1.058 0.1905-0.3704 0-0.7091-0.08467-0.3281-0.08467-0.5715-0.2646-0.2434-0.1799-0.3916-0.4657-0.1376-0.2963-0.1376-0.7091 0-0.4657 0.1588-0.762 0.1587-0.2963 0.4127-0.4762 0.2646-0.1905 0.5927-0.2857 0.3387-0.09525 0.6879-0.1587 0.3704-0.07408 0.6985-0.1058 0.3387-0.04233 0.5927-0.1058 0.254-0.07408 0.4022-0.2011 0.1482-0.1376 0.1482-0.3916 0-0.2963-0.1164-0.4762-0.1058-0.1799-0.2857-0.2752-0.1693-0.09525-0.3916-0.127-0.2117-0.03175-0.4233-0.03175-0.5715 0-0.9525 0.2222-0.381 0.2117-0.4127 0.8149h-0.8996q0.02117-0.508 0.2117-0.8572 0.1905-0.3492 0.508-0.5609 0.3175-0.2222 0.7197-0.3175 0.4127-0.09525 0.8784-0.09525 0.3704 0 0.7302 0.05292 0.3704 0.05292 0.6667 0.2222 0.2963 0.1588 0.4762 0.4551 0.1799 0.2963 0.1799 0.7726v2.815q0 0.3175 0.03175 0.4657 0.04233 0.1482 0.254 0.1482 0.1164 0 0.2752-0.05292zm-1.46-2.805q-0.1693 0.127-0.4445 0.1905-0.2752 0.05292-0.5821 0.09525-0.2963 0.03175-0.6032 0.08467-0.3069 0.04233-0.5503 0.1482-0.2434 0.1058-0.4022 0.3069-0.1482 0.1905-0.1482 0.5292 0 0.2222 0.08467 0.381 0.09525 0.1482 0.2328 0.2434 0.1482 0.09525 0.3387 0.1376 0.1905 0.04233 0.4022 0.04233 0.4445 0 0.762-0.1164 0.3175-0.127 0.5186-0.3069 0.2011-0.1905 0.2963-0.4022 0.09525-0.2222 0.09525-0.4127zm2.297-2.646v5.472h0.8996v-3.09q0-0.3704 0.09525-0.6773 0.1058-0.3175 0.3069-0.5503 0.2011-0.2328 0.4974-0.3598 0.3069-0.127 0.7197-0.127 0.5186 0 0.8149 0.2963 0.2963 0.2963 0.2963 0.8043v3.704h0.8996v-3.598q0-0.4445-0.09525-0.8043-0.08467-0.3704-0.3069-0.635-0.2222-0.2646-0.5821-0.4127t-0.8996-0.1482q-1.217 0-1.778 0.9948h-0.02117v-0.8678zm10.73 5.45q-0.2328 0.1376-0.6456 0.1376-0.3492 0-0.5609-0.1905-0.2011-0.2011-0.2011-0.6456-0.3704 0.4445-0.8678 0.6456-0.4868 0.1905-1.058 0.1905-0.3704 0-0.7091-0.08467-0.3281-0.08467-0.5715-0.2646-0.2434-0.1799-0.3916-0.4657-0.1376-0.2963-0.1376-0.7091 0-0.4657 0.1588-0.762 0.1587-0.2963 0.4127-0.4762 0.2646-0.1905 0.5927-0.2857 0.3387-0.09525 0.6879-0.1587 0.3704-0.07408 0.6985-0.1058 0.3387-0.04233 0.5927-0.1058 0.254-0.07408 0.4022-0.2011 0.1482-0.1376 0.1482-0.3916 0-0.2963-0.1164-0.4762-0.1058-0.1799-0.2857-0.2752-0.1693-0.09525-0.3916-0.127-0.2117-0.03175-0.4233-0.03175-0.5715 0-0.9525 0.2222-0.381 0.2117-0.4127 0.8149h-0.8996q0.02117-0.508 0.2117-0.8572 0.1905-0.3492 0.508-0.5609 0.3175-0.2222 0.7197-0.3175 0.4127-0.09525 0.8784-0.09525 0.3704 0 0.7302 0.05292 0.3704 0.05292 0.6667 0.2222 0.2963 0.1588 0.4762 0.4551 0.1799 0.2963 0.1799 0.7726v2.815q0 0.3175 0.03175 0.4657 0.04233 0.1482 0.254 0.1482 0.1164 0 0.2752-0.05292zm-1.46-2.805q-0.1693 0.127-0.4445 0.1905-0.2752 0.05292-0.5821 0.09525-0.2963 0.03175-0.6032 0.08467-0.3069 0.04233-0.5503 0.1482-0.2434 0.1058-0.4022 0.3069-0.1482 0.1905-0.1482 0.5292 0 0.2222 0.08467 0.381 0.09525 0.1482 0.2328 0.2434 0.1482 0.09525 0.3387 0.1376 0.1905 0.04233 0.4022 0.04233 0.4445 0 0.762-0.1164 0.3175-0.127 0.5186-0.3069 0.2011-0.1905 0.2963-0.4022 0.09525-0.2222 0.09525-0.4127zm7.017 2.36v-5.006h-0.8467v0.7832h-0.01058q-0.2434-0.4551-0.6773-0.6773-0.4339-0.2328-0.9525-0.2328-0.7091 0-1.196 0.2752-0.4868 0.2646-0.7832 0.6879-0.2963 0.4127-0.4233 0.9313-0.127 0.508-0.127 0.9948 0 0.5609 0.1482 1.069 0.1588 0.4974 0.4657 0.8784 0.3069 0.3704 0.762 0.5927 0.4551 0.2222 1.069 0.2222 0.5292 0 0.9948-0.2328 0.4762-0.2434 0.7091-0.7514h0.02117v0.3598q0 0.4551-0.09525 0.8361-0.08467 0.381-0.2857 0.6456-0.2011 0.2752-0.508 0.4233-0.3069 0.1588-0.7514 0.1588-0.2222 0-0.4657-0.0529-0.2434-0.0423-0.4551-0.1482-0.2011-0.1058-0.3492-0.2752-0.1376-0.1693-0.1482-0.4128h-0.8996q0.02117 0.4445 0.2328 0.7514 0.2117 0.3069 0.5292 0.4974 0.3281 0.1905 0.7197 0.2752 0.4022 0.0847 0.7832 0.0847 1.312 0 1.926-0.6668 0.6138-0.6667 0.6138-2.011zm-2.519-0.2646q-0.4445 0-0.7408-0.1799-0.2963-0.1905-0.4762-0.4868-0.1799-0.3069-0.254-0.6773-0.07408-0.3704-0.07408-0.7408 0-0.3916 0.08467-0.7514 0.09525-0.3598 0.2857-0.635 0.2011-0.2752 0.508-0.4339 0.3069-0.1693 0.7408-0.1693 0.4233 0 0.7197 0.1693 0.2963 0.1693 0.4762 0.4551 0.1905 0.2752 0.2752 0.6244 0.08467 0.3492 0.08467 0.7091 0 0.381-0.09525 0.762-0.08467 0.381-0.2752 0.6879-0.1905 0.2963-0.508 0.4868-0.3069 0.1799-0.7514 0.1799zm7.673-2.529h-3.143q0.02117-0.3175 0.1376-0.5927 0.1164-0.2857 0.3175-0.4974t0.4762-0.3281q0.2858-0.127 0.635-0.127 0.3387 0 0.6138 0.127 0.2857 0.1164 0.4868 0.3281 0.2117 0.2011 0.3281 0.4868 0.127 0.2857 0.1482 0.6032zm0.8678 1.524h-0.889q-0.1164 0.5397-0.4868 0.8043-0.3598 0.2646-0.9313 0.2646-0.4445 0-0.7726-0.1482-0.3281-0.1482-0.5397-0.3916-0.2117-0.254-0.3069-0.5715-0.09525-0.3281-0.08467-0.6879h4.096q0.02117-0.4974-0.09525-1.048-0.1058-0.5503-0.4022-1.016-0.2857-0.4657-0.7726-0.762-0.4762-0.3069-1.206-0.3069-0.5609 0-1.037 0.2117-0.4657 0.2117-0.8149 0.5927-0.3387 0.381-0.5292 0.8996-0.1905 0.5186-0.1905 1.143 0.02117 0.6244 0.1799 1.154 0.1693 0.5292 0.4974 0.9102 0.3281 0.381 0.8043 0.5927 0.4868 0.2117 1.143 0.2117 0.9313 0 1.545-0.4657 0.6138-0.4657 0.7937-1.386zm1.016-3.736v5.472h0.8996v-3.408q0-0.1588 0.07408-0.3916 0.08467-0.2434 0.254-0.4657 0.1799-0.2222 0.4551-0.381 0.2857-0.1588 0.6773-0.1588 0.3069 0 0.4974 0.09525 0.2011 0.08467 0.3175 0.254 0.1164 0.1588 0.1587 0.381 0.05292 0.2222 0.05292 0.4868v3.588h0.8996v-3.408q0-0.635 0.381-1.016t1.048-0.381q0.3281 0 0.5292 0.09525 0.2117 0.09525 0.3281 0.2646 0.1164 0.1588 0.1587 0.381 0.04233 0.2222 0.04233 0.4762v3.588h0.8996v-4.011q0-0.4233-0.1376-0.7197-0.127-0.3069-0.3704-0.4974-0.2328-0.1905-0.5715-0.2752-0.3281-0.09525-0.7408-0.09525-0.5397 0-0.9948 0.2434-0.4445 0.2434-0.7197 0.6879-0.1693-0.508-0.5821-0.7197-0.4127-0.2117-0.9207-0.2117-1.154 0-1.767 0.9313h-0.02117v-0.8043zm12.83 2.212h-3.143q0.02117-0.3175 0.1376-0.5927 0.1164-0.2857 0.3175-0.4974 0.2011-0.2117 0.4762-0.3281 0.2857-0.127 0.635-0.127 0.3387 0 0.6138 0.127 0.2857 0.1164 0.4868 0.3281 0.2117 0.2011 0.3281 0.4868 0.127 0.2857 0.1482 0.6032zm0.8678 1.524h-0.889q-0.1164 0.5397-0.4868 0.8043-0.3598 0.2646-0.9313 0.2646-0.4445 0-0.7726-0.1482-0.3281-0.1482-0.5397-0.3916-0.2117-0.254-0.3069-0.5715-0.09525-0.3281-0.08467-0.6879h4.096q0.02117-0.4974-0.09525-1.048-0.1058-0.5503-0.4022-1.016-0.2857-0.4657-0.7726-0.762-0.4762-0.3069-1.206-0.3069-0.5609 0-1.037 0.2117-0.4657 0.2117-0.8149 0.5927-0.3387 0.381-0.5292 0.8996-0.1905 0.5186-0.1905 1.143 0.02117 0.6244 0.1799 1.154 0.1693 0.5292 0.4974 0.9102 0.3281 0.381 0.8043 0.5927 0.4868 0.2117 1.143 0.2117 0.9313 0 1.545-0.4657 0.6138-0.4657 0.7937-1.386zm1.016-3.736v5.472h0.8996v-3.09q0-0.3704 0.09525-0.6773 0.1058-0.3175 0.3069-0.5503 0.2011-0.2328 0.4974-0.3598 0.3069-0.127 0.7197-0.127 0.5186 0 0.8149 0.2963 0.2963 0.2963 0.2963 0.8043v3.704h0.8996v-3.598q0-0.4445-0.09525-0.8043-0.08467-0.3704-0.3069-0.635-0.2222-0.2646-0.5821-0.4127t-0.8996-0.1482q-1.217 0-1.778 0.9948h-0.02117v-0.8678zm7.133 0v-1.64h-0.8996v1.64h-0.9313v0.7937h0.9313v3.482q0 0.381 0.07408 0.6138 0.07408 0.2328 0.2222 0.3598 0.1587 0.127 0.4022 0.1799 0.254 0.04233 0.6032 0.04233h0.6879v-0.7937h-0.4127q-0.2117 0-0.3492-0.01058-0.127-0.02117-0.2011-0.07408-0.07408-0.05292-0.1058-0.1482-0.02117-0.09525-0.02117-0.254v-3.397h1.09v-0.7937z"/></g></g></svg>
